#!OML:ASF G:\JayActor3\Patient Classification 1\Patient 1\Session 5\male.ASF
:FULLY-SPECIFIED
:DEGREES
438
root -20.2658 17.6758 -5.2685 147.135 -85.0953 -149.561
lowerback -3.27772 -0.123402 4.37928
upperback -0.467418 -0.322941 -0.254443
thorax 1.33222 -0.142845 -2.7325
lowerneck -6.22908 0.775206 1.50945
upperneck 12.8522 0.605469 1.10412
head 4.88377 0.383768 0.125502
rclavicle -3.14328e-015 -1.07344e-014
rhumerus -37.7626 -10.4264 -83.6519
rradius 23.9631
rwrist 7.05823
rhand -17.4382 -10.2919
rfingers 7.12502
rthumb 8.81251 -40.0879
lclavicle -3.14328e-015 -1.07344e-014
lhumerus -38.3023 12.6347 77.2841
lradius 20.296
lwrist 12.1539
lhand -19.0057 12.9488
lfingers 7.12502
lthumb 7.29964 42.8029
rfemur 13.6104 5.85344 28.0471
rtibia 31.0324
rfoot 15.6586 -11.6158
rtoes 4.19252
lfemur -10.6355 8.41033 -16.9019
ltibia 26.66
lfoot 13.7431 -15.6093
ltoes -3.57531
439
root -20.1449 17.6727 -5.26964 147.431 -84.7454 -149.703
lowerback -3.25132 -0.050958 4.6875
upperback -0.509019 -0.236767 -0.197097
thorax 1.28048 -0.100851 -2.84263
lowerneck -6.25422 0.813513 1.5286
upperneck 12.8301 0.663733 1.04702
head 4.88155 0.410149 0.108314
rclavicle -7.83957e-015 -5.96354e-015
rhumerus -37.6052 -10.3371 -83.7018
rradius 24.034
rwrist 6.9987
rhand -17.4364 -10.3196
rfingers 7.12502
rthumb 8.81428 -40.1156
lclavicle -7.83957e-015 -5.96354e-015
lhumerus -38.3117 12.6149 77.3609
lradius 20.4854
lwrist 12.2952
lhand -19.0159 12.9852
lfingers 7.12502
lthumb 7.28984 42.8396
rfemur 13.8408 6.0348 28.1979
rtibia 30.0393
rfoot 14.9259 -10.8277
rtoes 3.50851
lfemur -11.3172 8.15352 -16.805
ltibia 26.857
lfoot 13.3609 -15.3361
ltoes -4.15548
440
root -20.0213 17.6698 -5.27094 147.511 -84.3865 -149.662
lowerback -3.1722 0.014505 5.01081
upperback -0.53929 -0.157385 -0.133706
thorax 1.21092 -0.0626498 -2.9552
lowerneck -6.2665 0.851848 1.5528
upperneck 12.7993 0.722148 0.987086
head 4.8746 0.436554 0.0893679
rclavicle 1.05604e-014 -6.06293e-015
rhumerus -37.4508 -10.2214 -83.765
rradius 24.1144
rwrist 6.93347
rhand -17.4186 -10.3481
rfingers 7.12502
rthumb 8.83143 -40.1433
lclavicle 1.05604e-014 -6.06293e-015
lhumerus -38.3106 12.5891 77.451
lradius 20.6959
lwrist 12.4394
lhand -19.0291 13.0234
lfingers 7.12502
lthumb 7.27707 42.8783
rfemur 14.0524 6.178 28.3585
rtibia 29.1067
rfoot 14.1451 -10.161
rtoes 3.06474
lfemur -11.9736 7.88287 -16.6831
ltibia 27.0531
lfoot 12.9682 -15.0335
ltoes -4.91255
441
root -19.8956 17.6672 -5.27241 147.533 -84.0354 -149.595
lowerback -3.05456 0.0725868 5.32984
upperback -0.549505 -0.0850025 -0.0706632
thorax 1.14043 -0.0277892 -3.06608
lowerneck -6.29642 0.889822 1.57825
upperneck 12.7747 0.779262 0.929255
head 4.87255 0.462649 0.0708841
rclavicle 1.17904e-014 -7.15625e-015
rhumerus -37.2736 -10.0965 -83.8412
rradius 24.1898
rwrist 6.86515
rhand -17.4028 -10.3853
rfingers 7.12502
rthumb 8.84662 -40.1799
lclavicle 1.17904e-014 -7.15625e-015
lhumerus -38.2843 12.557 77.5579
lradius 20.9261
lwrist 12.5868
lhand -19.0406 13.0548
lfingers 7.12502
lthumb 7.26594 42.9101
rfemur 14.2519 6.29624 28.5111
rtibia 28.1996
rfoot 13.3901 -9.53551
rtoes 2.59439
lfemur -12.5934 7.58667 -16.5564
ltibia 27.2318
lfoot 12.6031 -14.6697
ltoes -5.73693
442
root -19.7679 17.6654 -5.27435 147.579 -83.6993 -149.58
lowerback -2.90555 0.121319 5.62986
upperback -0.546053 -0.0217292 -0.0107639
thorax 1.06616 0.00247512 -3.17003
lowerneck -6.31458 0.929013 1.61082
upperneck 12.7423 0.837686 0.869832
head 4.86622 0.48952 0.0507598
rclavicle -7.65321e-015 -3.18055e-015
rhumerus -37.0923 -9.94791 -83.9348
rradius 24.2678
rwrist 6.78014
rhand -17.3998 -10.4161
rfingers 7.12502
rthumb 8.84953 -40.2106
lclavicle -7.65321e-015 -3.18055e-015
lhumerus -38.2493 12.5088 77.6801
lradius 21.1839
lwrist 12.7534
lhand -19.0531 13.0814
lfingers 7.12502
lthumb 7.25388 42.9371
rfemur 14.4385 6.39628 28.6468
rtibia 27.3014
rfoot 12.7144 -8.93085
rtoes 2.12803
lfemur -13.1752 7.26785 -16.4342
ltibia 27.3799
lfoot 12.31 -14.2329
ltoes -6.55166
443
root -19.638 17.6645 -5.27703 147.728 -83.3853 -149.688
lowerback -2.73177 0.163042 5.89739
upperback -0.524607 0.0356368 0.0427095
thorax 0.996428 0.0301243 -3.26277
lowerneck -6.35539 0.966896 1.64218
upperneck 12.7146 0.893541 0.814729
head 4.8652 0.515518 0.0321445
rclavicle -3.44767e-015 1.98785e-015
rhumerus -36.897 -9.79007 -84.0392
rradius 24.3504
rwrist 6.69469
rhand -17.3938 -10.4419
rfingers 7.12502
rthumb 8.85538 -40.2361
lclavicle -3.44767e-015 1.98785e-015
lhumerus -38.1896 12.4283 77.8302
lradius 21.4738
lwrist 12.9563
lhand -19.0619 13.1021
lfingers 7.12502
lthumb 7.24543 42.9581
rfemur 14.6034 6.48109 28.7589
rtibia 26.4179
rfoot 12.0858 -8.37257
rtoes 1.70379
lfemur -13.73 6.93347 -16.3262
ltibia 27.4935
lfoot 12.1227 -13.7214
ltoes -7.27806
